HIERARCHY
ROOT ZeroOut_JNT
{
  OFFSET 0 0 0
  CHANNELS 6 Xposition Yposition Zposition Zrotation Xrotation Yrotation
  JOINT SpineFinal_1_JNT
  {
    OFFSET 0 59.8141 -42.9993
    CHANNELS 6 Xposition Yposition Zposition Zrotation Xrotation Yrotation
    JOINT l_legIKClavicle_Root_JNT
    {
      OFFSET -0.323145 -1.55994 9.59625
      CHANNELS 6 Xposition Yposition Zposition Zrotation Xrotation Yrotation
      JOINT l_legBlendRoot_JNT
      {
        OFFSET 16.1374 0 0
        CHANNELS 6 Xposition Yposition Zposition Zrotation Xrotation Yrotation
        JOINT l_legBlendMiddle_JNT
        {
          OFFSET 27.0969 0 0
          CHANNELS 6 Xposition Yposition Zposition Zrotation Xrotation Yrotation
          JOINT l_legBlendEnd_JNT
          {
            OFFSET 24.8414 0 0
            CHANNELS 6 Xposition Yposition Zposition Zrotation Xrotation Yrotation
            JOINT l_legBlendTip_JNT
            {
              OFFSET 6.77858 0 0
              CHANNELS 6 Xposition Yposition Zposition Zrotation Xrotation Yrotation
              End Site
              {
                OFFSET 0 0 0
              }
            }
          }
        }
      }
    }
    JOINT SpineFinal_2_JNT
    {
      OFFSET -19.5366 0.0587492 -0.00256357
      CHANNELS 6 Xposition Yposition Zposition Zrotation Xrotation Yrotation
      JOINT SpineFinal_3_JNT
      {
        OFFSET -19.4679 1.47333 -0.00136182
        CHANNELS 6 Xposition Yposition Zposition Zrotation Xrotation Yrotation
        JOINT SpineFinal_4_JNT
        {
          OFFSET -18.2335 5.20609 0
          CHANNELS 6 Xposition Yposition Zposition Zrotation Xrotation Yrotation
          JOINT SpineFinal_5_JNT
          {
            OFFSET -17.3574 8.01768 -1.82773e-005
            CHANNELS 6 Xposition Yposition Zposition Zrotation Xrotation Yrotation
            JOINT SpineFinal_6_JNT
            {
              OFFSET -19.144 8.35871 0
              CHANNELS 6 Xposition Yposition Zposition Zrotation Xrotation Yrotation
              JOINT SpineFinal_7_JNT
              {
                OFFSET -16.3943 7.24542 0
                CHANNELS 6 Xposition Yposition Zposition Zrotation Xrotation Yrotation
                JOINT SpineFinal_8_JNT
                {
                  OFFSET -19.3877 2.40349 0
                  CHANNELS 6 Xposition Yposition Zposition Zrotation Xrotation Yrotation
                  JOINT head_JNT
                  {
                    OFFSET -13.796 -11.6756 0
                    CHANNELS 6 Xposition Yposition Zposition Zrotation Xrotation Yrotation
                    JOINT l_hornRoot_JNT
                    {
                      OFFSET -15.825 14.8229 15.3879
                      CHANNELS 6 Xposition Yposition Zposition Zrotation Xrotation Yrotation
                      JOINT l_hornMid_JNT
                      {
                        OFFSET 6.55118 0 0
                        CHANNELS 6 Xposition Yposition Zposition Zrotation Xrotation Yrotation
                        JOINT l_hornEnd_JNT
                        {
                          OFFSET 6.73503 0 0
                          CHANNELS 6 Xposition Yposition Zposition Zrotation Xrotation Yrotation
                          End Site
                          {
                            OFFSET 0 0 0
                          }
                        }
                      }
                    }
                    JOINT headJend_JNT
                    {
                      OFFSET 1.34858 -27.5886 0
                      CHANNELS 6 Xposition Yposition Zposition Zrotation Xrotation Yrotation
                      End Site
                      {
                        OFFSET 0 0 0
                      }
                    }
                    JOINT r_hornRoot_JNT
                    {
                      OFFSET -15.825 14.8229 -15.3879
                      CHANNELS 6 Xposition Yposition Zposition Zrotation Xrotation Yrotation
                      JOINT r_hornMid_JNT
                      {
                        OFFSET -2.40814 5.46468 -2.69372
                        CHANNELS 6 Xposition Yposition Zposition Zrotation Xrotation Yrotation
                        JOINT r_hornEnd_JNT
                        {
                          OFFSET -2.40922 6.0083 -1.85921
                          CHANNELS 6 Xposition Yposition Zposition Zrotation Xrotation Yrotation
                          End Site
                          {
                            OFFSET 0 0 0
                          }
                        }
                      }
                    }
                    JOINT m_upLip_JNT
                    {
                      OFFSET 4.72477 -9.87974 0
                      CHANNELS 6 Xposition Yposition Zposition Zrotation Xrotation Yrotation
                      JOINT l_lipUpRoot_JNT
                      {
                        OFFSET 2.68891 -0.690234 4.02874
                        CHANNELS 6 Xposition Yposition Zposition Zrotation Xrotation Yrotation
                        JOINT l_lipUpEnd_JNT
                        {
                          OFFSET 0 0 -14.9226
                          CHANNELS 6 Xposition Yposition Zposition Zrotation Xrotation Yrotation
                          End Site
                          {
                            OFFSET 0 0 0
                          }
                        }
                      }
                      JOINT m_upLipRoot_JNT
                      {
                        OFFSET 0 0 3.94939
                        CHANNELS 6 Xposition Yposition Zposition Zrotation Xrotation Yrotation
                        JOINT m_upLipEnd_JNT
                        {
                          OFFSET 0 0 15.0019
                          CHANNELS 6 Xposition Yposition Zposition Zrotation Xrotation Yrotation
                          End Site
                          {
                            OFFSET 0 0 0
                          }
                        }
                      }
                      JOINT r_lipUpRoot_JNT
                      {
                        OFFSET -2.689 -0.690236 4.02875
                        CHANNELS 6 Xposition Yposition Zposition Zrotation Xrotation Yrotation
                        JOINT r_lipUpEnd_JNT
                        {
                          OFFSET 9.35075e-005 -0.000392738 14.9226
                          CHANNELS 6 Xposition Yposition Zposition Zrotation Xrotation Yrotation
                          End Site
                          {
                            OFFSET 0 0 0
                          }
                        }
                      }
                    }
                    JOINT m_DnLip_JNT
                    {
                      OFFSET 6.0207 -9.81639 0
                      CHANNELS 6 Xposition Yposition Zposition Zrotation Xrotation Yrotation
                      JOINT l_lipDn_JNT
                      {
                        OFFSET 2.71301 -0.162748 3.99146
                        CHANNELS 6 Xposition Yposition Zposition Zrotation Xrotation Yrotation
                        JOINT l_lipEnd_JNT
                        {
                          OFFSET 0 0 -14.9599
                          CHANNELS 6 Xposition Yposition Zposition Zrotation Xrotation Yrotation
                          End Site
                          {
                            OFFSET 0 0 0
                          }
                        }
                      }
                      JOINT m_dnLip_JNT
                      {
                        OFFSET 0 -0.0431035 3.99141
                        CHANNELS 6 Xposition Yposition Zposition Zrotation Xrotation Yrotation
                        JOINT m_dnLipEnd_JNT
                        {
                          OFFSET 0 0 14.9599
                          CHANNELS 6 Xposition Yposition Zposition Zrotation Xrotation Yrotation
                          End Site
                          {
                            OFFSET 0 0 0
                          }
                        }
                      }
                      JOINT r_lipDn_JNT
                      {
                        OFFSET -2.71301 -0.162761 3.99141
                        CHANNELS 6 Xposition Yposition Zposition Zrotation Xrotation Yrotation
                        JOINT r_lipDnEnd_JNT
                        {
                          OFFSET 0 0 14.9599
                          CHANNELS 6 Xposition Yposition Zposition Zrotation Xrotation Yrotation
                          End Site
                          {
                            OFFSET 0 0 0
                          }
                        }
                      }
                    }
                    JOINT l_lid_JNT
                    {
                      OFFSET -7.85698 -6.72885 9.63956
                      CHANNELS 6 Xposition Yposition Zposition Zrotation Xrotation Yrotation
                      End Site
                      {
                        OFFSET 0 0 0
                      }
                    }
                    JOINT r_lid_JNT
                    {
                      OFFSET -7.85684 -6.72882 -9.63956
                      CHANNELS 6 Xposition Yposition Zposition Zrotation Xrotation Yrotation
                      End Site
                      {
                        OFFSET 0 0 0
                      }
                    }
                  }
                }
              }
            }
            JOINT l_FwClavicleRoot_JNT
            {
              OFFSET -0.15532 -4.55898 6.72563
              CHANNELS 6 Xposition Yposition Zposition Zrotation Xrotation Yrotation
              JOINT l_FwLegBlendRoot_JNT
              {
                OFFSET 21.051 0 0
                CHANNELS 6 Xposition Yposition Zposition Zrotation Xrotation Yrotation
                JOINT l_FwLegBlendMiddle_JNT
                {
                  OFFSET 33.1145 0 0
                  CHANNELS 6 Xposition Yposition Zposition Zrotation Xrotation Yrotation
                  JOINT l_FwLegBlendTip_JNT
                  {
                    OFFSET 29.9221 0 0
                    CHANNELS 6 Xposition Yposition Zposition Zrotation Xrotation Yrotation
                    JOINT l_FwLegBlendEnd_JNT
                    {
                      OFFSET 9.62649 0 0
                      CHANNELS 6 Xposition Yposition Zposition Zrotation Xrotation Yrotation
                      End Site
                      {
                        OFFSET 0 0 0
                      }
                    }
                  }
                }
              }
            }
            JOINT r_FwClavicleRoot_JNT
            {
              OFFSET -0.15532 -4.55898 -6.72563
              CHANNELS 6 Xposition Yposition Zposition Zrotation Xrotation Yrotation
              JOINT r_FwLegBlendRoot_JNT
              {
                OFFSET 1.1653 -12.7157 -16.7361
                CHANNELS 6 Xposition Yposition Zposition Zrotation Xrotation Yrotation
                JOINT r_FwLegBlendMiddle_JNT
                {
                  OFFSET 16.2308 -5.97551 28.2387
                  CHANNELS 6 Xposition Yposition Zposition Zrotation Xrotation Yrotation
                  JOINT r_FwLegBlendTip_JNT
                  {
                    OFFSET 26.7017 -9.19239 -9.89204
                    CHANNELS 6 Xposition Yposition Zposition Zrotation Xrotation Yrotation
                    JOINT r_FwLegBlendEnd_JNT
                    {
                      OFFSET 4.44874 -7.74942 3.58114
                      CHANNELS 6 Xposition Yposition Zposition Zrotation Xrotation Yrotation
                      End Site
                      {
                        OFFSET 0 0 0
                      }
                    }
                  }
                }
              }
            }
          }
        }
      }
    }
    JOINT r_legIKClavicle_Root_JNT
    {
      OFFSET -0.323145 -1.55994 -9.59625
      CHANNELS 6 Xposition Yposition Zposition Zrotation Xrotation Yrotation
      JOINT r_legBlendRoot_JNT
      {
        OFFSET 13.2848 -5.74129 -7.13912
        CHANNELS 6 Xposition Yposition Zposition Zrotation Xrotation Yrotation
        JOINT r_legBlendMiddle_JNT
        {
          OFFSET 14.815 16.9375 15.0957
          CHANNELS 6 Xposition Yposition Zposition Zrotation Xrotation Yrotation
          JOINT r_legBlendEnd_JNT
          {
            OFFSET 23.6904 -6.58016 -3.54465
            CHANNELS 6 Xposition Yposition Zposition Zrotation Xrotation Yrotation
            JOINT r_legBlendTip_JNT
            {
              OFFSET 1.47758 -6.16068 -2.41079
              CHANNELS 6 Xposition Yposition Zposition Zrotation Xrotation Yrotation
              End Site
              {
                OFFSET 0 0 0
              }
            }
          }
        }
      }
    }
    JOINT tailRoot_JNT
    {
      OFFSET 2.82533 14.5514 0
      CHANNELS 6 Xposition Yposition Zposition Zrotation Xrotation Yrotation
      JOINT tailMid_JNT
      {
        OFFSET 7.87756 0 0
        CHANNELS 6 Xposition Yposition Zposition Zrotation Xrotation Yrotation
        JOINT tailEnd_JNT
        {
          OFFSET 6.52588 0 0
          CHANNELS 6 Xposition Yposition Zposition Zrotation Xrotation Yrotation
          End Site
          {
            OFFSET 0 0 0
          }
        }
      }
    }
    JOINT l_shoulderBkRoot_JNT
    {
      OFFSET -9.30511 7.998 11.2048
      CHANNELS 6 Xposition Yposition Zposition Zrotation Xrotation Yrotation
      JOINT l_shoulderBkMid_JNT
      {
        OFFSET 0 0 0
        CHANNELS 6 Xposition Yposition Zposition Zrotation Xrotation Yrotation
        End Site
        {
          OFFSET 0 0 0
        }
      }
    }
    JOINT r_shoulderBkRoot_JNT
    {
      OFFSET -9.30514 7.99801 -11.2048
      CHANNELS 6 Xposition Yposition Zposition Zrotation Xrotation Yrotation
      JOINT r_shoulderBkMid_JNT
      {
        OFFSET 0 0 0
        CHANNELS 6 Xposition Yposition Zposition Zrotation Xrotation Yrotation
        End Site
        {
          OFFSET 0 0 0
        }
      }
    }
  }
}
MOTION
Frames:	3
Frame Time:	0.0416667
0 0 0 0 0 -0 -9.91879e-015 59.8142 -42.9993 -0.500675 5.10474 90.0506 -0.323145 -1.55994 9.59625 -26.4062 61.2999 -67.9538 16.1374 -6.66027e-007 1.69207e-006 -26.2393 10.5531 57.5938 27.0969 3.55271e-015 -2.84217e-014 4.8424e-015 2.20527e-015 -70.7063 24.8414 7.10543e-015 -7.10543e-015 -0.133288 -0.137198 -43.7586 6.77858 -7.10543e-015 -1.06581e-014 -2.52566e-037 -1.51661e-021 -9.54166e-015 -19.5381 0.0457769 -0.00245081 -0.16737 -0.420921 -0.00935124 -19.4671 1.48141 -0.00137268 -1.4582 -0.0777138 -0.000109301 -18.2339 5.22002 -2.82948e-006 -17.7081 0.000190248 -6.34339e-005 -17.3656 8.00869 -1.78341e-005 -16.6865 -0.000248186 -1.87703e-005 -19.144 8.35871 -2.07814e-014 -16.6153 -1.3621e-015 -1.11384e-014 -16.3943 7.24542 2.60857e-014 -23.8429 -0.0765665 -1.26869e-014 -19.3877 2.40349 -3.46528e-014 3.26212 7.11898e-015 -1.42162e-014 -13.796 -11.6756 2.83384e-014 -12.9302 1.2424e-017 1.55301e-018 -15.825 14.8229 15.3879 90.9375 7.37657 -23.3308 6.55118 8.52651e-014 1.06581e-014 -0.000663586 -7.59828 2.06031 6.73503 8.52651e-014 -5.32907e-014 -1.59028e-015 -3.97569e-016 -0 1.34858 -27.5886 -1.34059e-014 92.7985 1.31819e-014 -1.65364e-014 -15.825 14.8229 -15.3879 -14.8222 2.85467 -6.13959 -2.40814 5.46468 -2.69372 -7.71367e-009 -7.59931 2.05853 -2.40922 6.0083 -1.85921 1.59028e-015 1.59028e-015 -2.98177e-016 4.72477 -9.87974 -3.747e-016 92.7985 3.50417e-015 -90 2.68891 -0.690234 4.02874 180 7.01671e-015 -180 4.44089e-016 0 -14.9226 -3.10601e-018 1.59028e-015 -0 0 -2.84217e-014 3.94939 3.44836e-034 1.59028e-015 -1.2424e-017 -1.38778e-017 0 15.0019 -3.10601e-018 1.59028e-015 -1.2424e-017 -2.689 -0.690236 4.02875 3.44836e-034 1.59028e-015 -1.2424e-017 9.35075e-005 -0.000392738 14.9226 -3.10601e-018 1.59028e-015 -1.2424e-017 6.0207 -9.81639 -3.747e-016 92.7985 3.50417e-015 -90 2.71301 -0.162748 3.99146 180 7.01671e-015 -180 4.44089e-016 2.84217e-014 -14.9599 -3.10601e-018 1.59028e-015 -0 1.38778e-017 -0.0431035 3.99141 3.44836e-034 1.59028e-015 -1.2424e-017 0 0 14.9599 -3.10601e-018 1.59028e-015 -1.2424e-017 -2.71301 -0.162761 3.99141 3.44836e-034 1.59028e-015 -1.2424e-017 0 0 14.9599 -3.10601e-018 1.59028e-015 -1.2424e-017 -7.85698 -6.72885 9.63956 34.106 19.9417 85.9622 -7.85684 -6.72882 -9.63956 -145.894 19.9417 85.9622 -0.155311 -4.55898 6.72563 41.3779 26.2605 -112.654 21.051 -3.78574e-008 -3.67015e-007 59.3362 -54.6102 126.615 33.1145 8.3753e-007 -2.8019e-007 119.951 7.01671e-015 180 29.9221 -2.13163e-014 2.4869e-014 29.7846 1.5128e-015 4.62999e-015 9.62649 1.77636e-014 7.10543e-015 29.859 -1.7467e-015 90 -0.155311 -4.55898 -6.72563 -34.0298 9.37258 -17.9831 1.1653 -12.7157 -16.7361 76.0609 -59.4298 132.058 16.2308 -5.97551 28.2387 141.953 6.65008 160.204 26.7017 -9.19239 -9.89204 40.6525 9.83562 5.71195 4.44874 -7.74942 3.58114 29.859 -1.7467e-015 90 -0.323145 -1.55994 -9.59625 -62.7106 -9.24999 4.74057 13.2848 -5.74129 -7.13912 -15.1593 10.1245 42.7626 14.815 16.9375 15.0957 -11.0519 11.0525 -52.9749 23.6904 -6.58016 -3.54465 5.71441 0.775347 -49.8569 1.47758 -6.16068 -2.41079 -1.19271e-015 -7.95139e-016 7.00716e-015 2.82533 14.5514 -2.29261e-014 4.99157 -2.48481e-017 4.96265 7.87756 -1.42109e-014 -2.66454e-015 19.1217 -1.98785e-015 4.96265 6.52588 7.10543e-015 3.55271e-015 -2.06092e-016 -2.38542e-015 -4.93791 -9.30511 7.998 11.2048 -6.8505 -4.18474e-016 -90 0 0 0 -5.29963e-017 -3.97569e-016 -6.21202e-018 -9.30514 7.99801 -11.2048 173.149 4.18474e-016 -90 0 0 0 -4.62019e-017 0 -6.21202e-018 
0 0 0 0 0 -0 -9.91879e-015 59.8148 -42.9993 -0.500675 5.10474 90.0506 -0.323145 -1.55994 9.59625 -26.4062 61.2999 -67.9538 16.1374 -6.66141e-007 1.69212e-006 -26.2393 10.5531 57.5938 27.0969 7.10543e-015 -4.26326e-014 4.8424e-015 2.20527e-015 -70.7063 24.8414 1.06581e-014 1.42109e-014 -0.133288 -0.137198 -43.7586 6.77858 -7.10543e-015 -7.10543e-015 -2.52566e-037 -1.51661e-021 -9.54166e-015 -19.5363 0.061536 -0.0025878 -0.24105 -0.420902 -0.00999271 -19.468 1.47159 -0.00135948 -1.4582 -0.0777138 -0.000109301 -18.2334 5.20309 -2.87495e-006 -17.7081 0.000190248 -6.34339e-005 -17.3556 8.01961 -1.83728e-005 -16.6865 -0.000248186 -1.87703e-005 -19.144 8.35871 -2.07815e-014 -16.6153 -1.3621e-015 -1.11384e-014 -16.3943 7.24542 2.60857e-014 -23.8429 -0.0765665 -1.26866e-014 -19.3877 2.40349 -3.4639e-014 3.26212 7.11898e-015 -1.421e-014 -13.796 -11.6756 2.83176e-014 -12.9302 0 -4.65902e-018 -15.825 14.8229 15.3879 90.9375 7.37657 -23.3308 6.55118 1.13687e-013 5.32907e-015 -0.000663586 -7.59828 2.06031 6.73503 2.84217e-014 -5.68434e-014 1.59028e-015 0 3.18055e-015 1.34858 -27.5886 -1.34059e-014 92.7985 1.31788e-014 -1.65116e-014 -15.825 14.8229 -15.3879 -14.8222 2.85467 -6.13959 -2.40814 5.46468 -2.69372 -7.71367e-009 -7.59931 2.05853 -2.40922 6.0083 -1.85921 1.59028e-015 -1.59028e-015 -3.97569e-016 4.72477 -9.87974 -3.33067e-016 92.7985 3.50417e-015 -90 2.68891 -0.690234 4.02874 -180 7.01671e-015 180 0 0 -14.9226 3.10601e-018 -1.59028e-015 -0 -4.16334e-017 -2.84217e-014 3.94939 3.10601e-018 -1.59028e-015 1.2424e-017 0 0 15.0019 -6.21202e-018 -1.59028e-015 1.2424e-017 -2.689 -0.690236 4.02875 3.10601e-018 -1.59028e-015 1.2424e-017 9.35075e-005 -0.000392738 14.9226 -6.21202e-018 -1.59028e-015 1.2424e-017 6.0207 -9.81639 -3.46945e-016 92.7985 3.50417e-015 -90 2.71301 -0.162748 3.99146 -180 7.01671e-015 180 0 0 -14.9599 3.10601e-018 -1.59028e-015 -0 -4.16334e-017 -0.0431035 3.99141 3.10601e-018 -1.59028e-015 1.2424e-017 0 0 14.9599 -6.21202e-018 -1.59028e-015 1.2424e-017 -2.71301 -0.162761 3.99141 3.10601e-018 -1.59028e-015 1.2424e-017 0 0 14.9599 -6.21202e-018 -1.59028e-015 1.2424e-017 -7.85698 -6.72885 9.63956 34.106 19.9417 85.9622 -7.85684 -6.72882 -9.63956 -145.894 19.9417 85.9622 -0.154713 -4.559 6.72563 41.3779 26.2605 -112.654 21.051 -3.78393e-008 -3.66275e-007 59.3362 -54.6102 126.615 33.1145 8.3753e-007 -2.8019e-007 119.951 7.01671e-015 180 29.9221 -3.55271e-014 7.10543e-015 29.7846 1.5128e-015 4.62998e-015 9.62649 1.77636e-014 7.10543e-015 29.859 -1.7467e-015 90 -0.154713 -4.559 -6.72563 -34.0298 9.37258 -17.9831 1.1653 -12.7157 -16.7361 76.0609 -59.4298 132.058 16.2308 -5.97551 28.2387 141.953 6.65008 160.204 26.7017 -9.19239 -9.89204 40.6525 9.83562 5.71195 4.44874 -7.74942 3.58114 29.859 -1.7467e-015 90 -0.323145 -1.55994 -9.59625 -62.7106 -9.24999 4.74057 13.2848 -5.74129 -7.13912 -15.1593 10.1245 42.7626 14.815 16.9375 15.0957 -11.0519 11.0525 -52.9749 23.6904 -6.58016 -3.54465 5.71441 0.775347 -49.8569 1.47758 -6.16068 -2.41079 -1.19271e-015 -7.95139e-016 7.00716e-015 2.82533 14.5514 1.21569e-014 4.99157 -2.48481e-017 4.96265 7.87756 1.42109e-014 -6.21725e-015 19.1217 -1.98785e-015 4.96265 6.52588 3.55271e-014 -1.77636e-015 -3.0931e-015 -2.38542e-015 2.15368 -9.30511 7.998 11.2048 -6.8505 -4.18474e-016 -90 0 0 0 -5.29963e-017 -3.97569e-016 -6.21202e-018 -9.30514 7.99801 -11.2048 173.149 4.18474e-016 -90 0 0 0 -4.62019e-017 0 -6.21202e-018 
0 0 0 0 0 -0 -9.91879e-015 59.8155 -42.9993 -0.500669 5.09722 90.0505 -0.323145 -1.55994 9.59625 -26.4062 61.2999 -67.9538 16.1374 -6.66498e-007 1.69226e-006 -26.2393 10.5531 57.6015 27.0969 1.06581e-014 -2.84217e-014 5.00493e-015 2.23633e-015 -70.7014 24.8414 1.42109e-014 7.10543e-015 -0.133296 -0.137182 -43.7636 6.77858 -1.06581e-014 -1.42109e-014 -4.20943e-038 7.58303e-022 3.18055e-015 -19.5319 0.102733 -0.00294591 -0.433679 -0.420849 -0.0116697 -19.4704 1.4459 -0.00132493 -1.36262 -0.0777216 2.03001e-005 -18.2321 5.15885 -2.99048e-006 -17.6711 0.000195656 -6.50586e-005 -17.3294 8.04818 -1.97966e-005 -16.7454 -0.000254868 -1.95392e-005 -19.144 8.35871 -2.07815e-014 -16.6153 -1.3621e-015 -1.11384e-014 -16.3943 7.24542 2.60857e-014 -23.8429 -0.0765665 -1.2677e-014 -19.3877 2.40349 -3.46528e-014 3.26212 7.09413e-015 -1.42162e-014 -13.796 -11.6756 2.83315e-014 -12.9302 -2.48481e-017 -3.10601e-018 -15.825 14.8229 15.3879 90.9395 7.44025 -23.2603 6.55118 1.98952e-013 -5.32907e-015 -0.0233067 -7.56303 2.12088 6.73503 2.84217e-014 -5.32907e-014 0 0 -0 1.34858 -27.5886 -1.34059e-014 92.7985 1.31664e-014 -1.65364e-014 -15.825 14.8229 -15.3879 -14.8222 2.85467 -6.13959 -2.40814 5.46468 -2.69372 -7.71367e-009 -7.59931 2.05853 -2.40922 6.0083 -1.85921 -5.51738e-033 7.95139e-016 3.97569e-016 4.72477 -9.87974 -4.16334e-016 92.7985 3.50417e-015 -90 2.68891 -0.690234 4.02874 -180 7.01671e-015 180 0 -2.84217e-014 -14.9226 -6.89673e-034 -1.59028e-015 -2.48481e-017 4.16334e-017 0 3.94939 3.10601e-018 -1.59028e-015 1.2424e-017 0 2.84217e-014 15.0019 3.10601e-018 -3.18055e-015 3.72721e-017 -2.689 -0.690236 4.02875 3.10601e-018 -1.59028e-015 1.2424e-017 9.35075e-005 -0.000392738 14.9226 3.10601e-018 -3.18055e-015 3.72721e-017 6.0207 -9.81639 -4.02456e-016 92.7985 3.50417e-015 -90 2.71301 -0.162748 3.99146 -180 7.01671e-015 180 -4.44089e-016 0 -14.9599 -6.89673e-034 -1.59028e-015 -2.48481e-017 0 -0.0431035 3.99141 3.10601e-018 -1.59028e-015 1.2424e-017 -1.38778e-017 0 14.9599 3.10601e-018 -3.18055e-015 3.72721e-017 -2.71301 -0.162761 3.99141 3.10601e-018 -1.59028e-015 1.2424e-017 -4.44089e-016 0 14.9599 3.10601e-018 -3.18055e-015 3.72721e-017 -7.85698 -6.72885 9.63956 34.106 19.9417 85.9622 -7.85684 -6.72882 -9.63956 -145.894 19.9417 85.9622 -0.152844 -4.55907 6.72563 41.3854 26.2605 -112.654 21.051 -3.77831e-008 -3.64036e-007 59.356 -54.6257 126.631 33.1145 8.3753e-007 -2.8019e-007 119.988 7.01671e-015 180 29.9221 -1.42109e-014 1.42109e-013 29.8019 1.5142e-015 4.62953e-015 9.62649 2.13163e-014 7.10543e-015 29.859 -1.7467e-015 90 -0.152844 -4.55907 -6.72563 -34.0223 9.37258 -17.9831 1.1653 -12.7157 -16.7361 76.0512 -59.4342 132.068 16.2308 -5.97551 28.2387 141.949 6.63888 160.239 26.7017 -9.19239 -9.89204 40.654 9.82067 5.70307 4.44874 -7.74942 3.58114 29.859 -1.7467e-015 90 -0.323145 -1.55994 -9.59625 -62.7106 -9.24999 4.74057 13.2848 -5.74129 -7.13912 -15.1516 10.1242 42.7613 14.815 16.9375 15.0957 -11.0484 11.0491 -52.9756 23.6904 -6.58016 -3.54465 5.70955 0.774626 -49.8568 1.47758 -6.16068 -2.41079 3.97569e-016 1.59028e-015 -4.96962e-015 2.82533 14.5514 -3.54716e-014 4.99157 9.47333e-017 -2.1466 7.87756 -1.42109e-014 -5.32907e-015 19.1217 -1.59028e-015 -2.1466 6.52588 -7.10543e-015 -1.77636e-015 6.43093e-015 -7.95139e-016 3.93915 -9.30511 7.998 11.2048 -6.8505 -4.18474e-016 -90 0 0 0 1.67336e-016 -3.97569e-016 -0 -9.30514 7.99801 -11.2048 173.149 4.18474e-016 -90 0 0 0 -1.61513e-016 0 -0 
